<svg xmlns="http://www.w3.org/2000/svg" viewBox="0 0 240 27">
  <path fill="currentColor" d="M158 26.2h18.5V20h-12V1H158v25.1zm42.6-25v13.7c0 3.6-1.8 5.6-5.1 5.6-3.4 0-5.1-2-5.1-5.6V1H184v14.1c0 6.5 4 11.5 11.5 11.5 7.4 0 11.5-5 11.5-11.5v-14h-6.4zm31 0L227 8 222.3 1h-7.6l8.4 12.5-8.6 12.6h7.8l4.6-6.9 4.7 6.9h7.8l-8.6-12.6 8.4-12.5h-7.6zM0 26.2h6.4v-5.7H11c6.7 0 9.9-4.5 9.9-9.8 0-5-3.2-9.6-9.9-9.6H0v25.1zM10.7 7c2.7 0 3.7 1.8 3.7 3.8 0 2.2-1 3.9-3.7 3.9H6.4V7h4.3zm17.7 6.7c0 7.1 6 13 13.3 13 7.3 0 13.2-5.9 13.2-13a13.2 13.2 0 1 0-26.6 0zm6.5 0c0-3.8 3-6.9 6.8-6.9s6.8 3 6.8 6.9a6.8 6.8 0 1 1-13.6 0zm29 12.5h18.4V20h-12V1H64v25.1zm27.8-25h-7.5L94 17v9.2h6.4V17l10-15.9h-7.6l-5.6 9.1-5.5-9zM122.9 26.2l22.4-12.6L122.9 1z" />
</svg>
